<?xml version="1.0" encoding="UTF-8"?>
<svg xmlns="http://www.w3.org/2000/svg" version="1.2" viewBox="0 0 165 66" width="165" height="66">
  <style>.a{fill:#213be7}</style>
  <path fill-rule="evenodd" class="a" d="m164.7 40.6h-34q1 4.7 4.5 7.5 3.5 2.7 9.1 2.7 8.1 0 14.7-4.6l4.3 7.7q-8.3 6.1-19.4 6.1-6.1 0-10.8-1.9-4.7-2-7.6-5.3-2.9-3.4-4.3-7.4-1.4-4.1-1.4-8.7 0-10.1 6.4-16.6 6.5-6.7 16.7-6.7 9.6 0 15.8 6.1 6.3 6 6.3 16.3 0 2.2-0.3 4.8zm-10.2-8.1q-0.7-4.7-3.8-7.4-3.2-2.7-7.8-2.7-4.7 0-7.9 2.7-3.3 2.7-4.3 7.4z"/>
  <path class="a" d="m104.2 40.8q0 4.4-2.4 7.1-2.5 2.6-6.8 2.6-4.2 0-6.7-2.6c-1.6-1.8-2.4-4.1-2.4-9.1v-25.3l-10.5 0.1v27.2q0 9.1 5.3 14.1 5.2 5.1 14.3 5.1 9.2 0 14.4-5.1 5.3-5 5.3-14.1v-27.2h-10.5z"/>
  <path class="a" d="m61.4 40.8v-40.5h-10.5v40.5q0 9.1 5.2 14.1 5.3 5.1 14.4 5.1v-9.5q-4.3 0-6.7-2.6-2.4-2.7-2.4-7.1z"/>
  <path fill-rule="evenodd" class="a" d="m46.2 35.2c0.5 7.8-2.9 15-8.6 19.6h0.1l-2.1 1.7-11.2 8.9c-0.4 0.3-0.9 0.4-1.3 0.4-0.4 0-0.9-0.1-1.2-0.3l-10.7-8.6-1.9-1.6c-5.2-3.9-8.8-9.9-9.3-16.9q0-1.5 0-2.9v-35.2h10.4v17.2c3.2-2.1 7-3.5 11.1-3.8q0.8 0 1.6 0c12.1 0 22.2 9.3 23.1 21.5zm-10.3 0.7c-0.3-3.3-1.7-6.3-4.1-8.5-2.4-2.2-5.4-3.4-8.7-3.4q-0.4 0-0.9 0.1c-3.4 0.2-6.5 1.7-8.7 4.3-2.3 2.6-3.4 5.9-3.1 9.3 0.2 3.2 1.6 6.2 4 8.4 2.4 2.2 5.5 3.5 8.7 3.5q0.4 0 0.9-0.1c3.4-0.2 6.5-1.8 8.8-4.3 2.2-2.6 3.3-5.9 3.1-9.3z"/>
</svg>