<svg width="19" height="20" viewBox="0 0 19 20" fill="none" xmlns="http://www.w3.org/2000/svg">
<path d="M2.375 6.04167V4.45833C2.375 4.03841 2.54181 3.63568 2.83875 3.33875C3.13568 3.04181 3.53841 2.875 3.95833 2.875H5.54167" stroke="currentColor" stroke-width="2" stroke-linecap="round" stroke-linejoin="round" fill="none"/>
<path d="M13.4583 2.875H15.0416C15.4616 2.875 15.8643 3.04181 16.1612 3.33875C16.4582 3.63568 16.625 4.03841 16.625 4.45833V6.04167" stroke="currentColor" stroke-width="2" stroke-linecap="round" stroke-linejoin="round" fill="none"/>
<path d="M16.625 13.9584V15.5417C16.625 15.9616 16.4582 16.3644 16.1612 16.6613C15.8643 16.9582 15.4616 17.125 15.0416 17.125H13.4583" stroke="currentColor" stroke-width="2" stroke-linecap="round" stroke-linejoin="round" fill="none"/>
<path d="M5.54167 17.125H3.95833C3.53841 17.125 3.13568 16.9582 2.83875 16.6613C2.54181 16.3644 2.375 15.9616 2.375 15.5417V13.9584" stroke="currentColor" stroke-width="2" stroke-linecap="round" stroke-linejoin="round" fill="none"/>
<path d="M6.33331 11.5834C6.33331 11.5834 7.52081 13.1667 9.49998 13.1667C11.4791 13.1667 12.6666 11.5834 12.6666 11.5834" stroke="currentColor" stroke-width="2" stroke-linecap="round" stroke-linejoin="round" fill="none"/>
<path d="M7.125 7.625H7.13292" stroke="currentColor" stroke-width="2" stroke-linecap="round" stroke-linejoin="round" fill="none"/>
<path d="M11.875 7.625H11.8829" stroke="currentColor" stroke-width="2" stroke-linecap="round" stroke-linejoin="round" fill="none"/>
</svg>
