<?xml version="1.0" encoding="UTF-8" standalone="no"?>
<svg
   width="84.534309"
   height="51.859058"
   viewBox="0 0 84.534309 51.859058"
   fill="none"
   version="1.1"
   id="svg1"
   sodipodi:docname="linearity.svg"
   inkscape:version="1.4.2 (ebf0e940d0, 2025-05-08)"
   xmlns:inkscape="http://www.inkscape.org/namespaces/inkscape"
   xmlns:sodipodi="http://sodipodi.sourceforge.net/DTD/sodipodi-0.dtd"
   xmlns="http://www.w3.org/2000/svg"
   xmlns:svg="http://www.w3.org/2000/svg">
  <sodipodi:namedview
     id="namedview1"
     pagecolor="#ffffff"
     bordercolor="#000000"
     borderopacity="0.25"
     inkscape:showpageshadow="2"
     inkscape:pageopacity="0.0"
     inkscape:pagecheckerboard="0"
     inkscape:deskcolor="#d1d1d1"
     inkscape:zoom="12.036745"
     inkscape:cx="50.927388"
     inkscape:cy="31.486917"
     inkscape:window-width="2418"
     inkscape:window-height="1300"
     inkscape:window-x="0"
     inkscape:window-y="0"
     inkscape:window-maximized="0"
     inkscape:current-layer="g1" />
  <g
     clip-path="url(#clip0_2067_5915)"
     id="g1"
     transform="translate(0,-4.28194)">
    <path
       d="m 42.2672,39.0132 v -8.8017 h 0.3164 c 5.7755,0 11.5509,1.8634 16.1297,5.2433 4.5788,3.38 7.961,8.2765 8.95,14.3426 0.0395,0.2378 0,0.4361 -0.1088,0.5748 -0.1088,0.1388 -0.2868,0.2181 -0.5242,0.2181 h -8.0698 c -0.1582,0 -0.2769,-0.0396 -0.3659,-0.109 -0.089,-0.0694 -0.1483,-0.1685 -0.1879,-0.2875 -0.8702,-3.2114 -2.947,-6.0066 -5.7358,-7.9989 C 49.882,40.2026 46.3812,39.0132 42.6627,39.0132 Z M 33.96,4.837 c 0,-0.15859 0.0594,-0.29735 0.1582,-0.39647 0.0989,-0.09912 0.2374,-0.15859 0.3956,-0.15859 h 7.1995 c 0.1583,0 0.2967,0.05947 0.3956,0.15859 0.0989,0.09912 0.1583,0.23788 0.1583,0.39647 v 7.7709 h -0.3165 c -2.5317,0 -4.5294,-0.9515 -5.8941,-2.3986 C 34.6918,8.76211 33.96,6.81938 33.96,4.837 Z m -17.089,5.63 c -0.0395,-0.1586 0,-0.3172 0.0989,-0.4362 0.0989,-0.11891 0.2572,-0.1982 0.455,-0.1982 h 8.1489 c 0.1582,0 0.2769,0.03965 0.3659,0.10903 0.089,0.06937 0.1483,0.16847 0.1879,0.28747 0.8702,3.2114 2.947,6.0066 5.7359,7.9989 2.7888,1.9923 6.2896,3.1817 10.0081,3.1817 h 0.3956 v 8.8018 H 41.9507 C 36.1753,30.2115 30.3998,28.348 25.821,24.9482 21.2422,21.5485 17.86,16.6123 16.871,10.467 Z M 0.0194271,16.0969 C -0.0201307,15.9383 -3.51811e-4,15.7599 0.0886532,15.6211 0.177658,15.4824 0.335889,15.3833 0.573236,15.3833 H 8.72214 c 0.15823,0 0.27691,0.0396 0.36591,0.109 0.08901,0.0694 0.14834,0.1685 0.1879,0.2874 C 10.7,21.489 14.458,27.2974 20.0555,31.6784 c 5.5974,4.3811 13.0342,7.3348 21.8161,7.3348 h 0.3956 V 47.815 C 31.3888,47.815 21.6971,44.3855 14.2899,38.7059 6.8827,33.0264 1.75997,25.0969 0.0194271,16.0969 Z M 84.5149,44.1674 c 0.0395,0.2379 0.0198,0.456 -0.0692,0.6145 -0.089,0.1586 -0.2473,0.2577 -0.4846,0.2577 H 75.8122 C 75.6539,45.0396 75.5353,45 75.4463,44.9306 75.3572,44.8612 75.2979,44.7621 75.2584,44.6432 73.8343,38.9339 70.0763,33.1256 64.4789,28.7445 58.8814,24.3634 51.4446,21.4097 42.6627,21.4097 h -0.3955 v -8.8018 c 10.8783,0 20.57,3.4295 27.9772,9.0892 7.4072,5.6597 12.5299,13.5496 14.2705,22.4703 z M 42.2672,55.5859 V 47.815 h 0.3164 c 2.5317,0 4.5294,0.9515 5.8941,2.3987 1.3648,1.4471 2.0966,3.3898 2.0966,5.3722 0,0.1586 -0.0593,0.2974 -0.1582,0.3965 -0.0989,0.0991 -0.2374,0.1586 -0.3956,0.1586 H 42.821 c -0.1583,0 -0.2967,-0.0595 -0.3956,-0.1586 -0.0989,-0.0991 -0.1582,-0.2379 -0.1582,-0.3965 z"
       fill="#111717"
       id="path1"
       sodipodi:nodetypes="ccscccsssccscscsssscscsccsscccsccsccccsscccsccccccsscccsccscscscssssss"
       style="fill:#ffffff;fill-opacity:1" />
  </g>
  <defs
     id="defs1">
    <clipPath
       id="clip0_2067_5915">
      <rect
         width="381"
         height="72"
         fill="#ffffff"
         id="rect1"
         x="0"
         y="0" />
    </clipPath>
  </defs>
</svg>
