<svg width="112" height="25" viewBox="0 0 112 25" fill="none" xmlns="http://www.w3.org/2000/svg">
<path d="M34.2103 19.1366C30.4539 19.1366 28.116 16.6337 28.116 12.6308V12.6134C28.116 8.61047 30.4714 6.11628 34.2103 6.11628C37.9579 6.11628 40.3046 8.61919 40.3046 12.6134V12.6308C40.3046 16.6337 37.9667 19.1366 34.2103 19.1366ZM34.2103 16.9041C36.3118 16.9041 37.6077 15.2384 37.6077 12.6308V12.6134C37.6077 9.98837 36.2855 8.34884 34.2103 8.34884C32.1438 8.34884 30.8129 9.97965 30.8129 12.6134V12.6308C30.8129 15.2645 32.1351 16.9041 34.2103 16.9041Z" fill="white"/>
<path d="M41.7931 21.9709V9.56977H44.3499V11.2006H44.4112C44.9191 10.0669 45.9436 9.37791 47.2745 9.37791C49.6562 9.37791 51.1097 11.1919 51.1097 14.2355V14.2442C51.1097 17.2791 49.6562 19.1105 47.3095 19.1105C45.9698 19.1105 44.9103 18.4302 44.4025 17.3227H44.3499V21.9709H41.7931ZM46.4339 17C47.7035 17 48.5091 15.9448 48.5091 14.2442V14.2355C48.5091 12.5262 47.7035 11.4884 46.4339 11.4884C45.1905 11.4884 44.3412 12.5523 44.3412 14.2442V14.2529C44.3412 15.936 45.1905 17 46.4339 17Z" fill="white"/>
<path d="M56.7136 19.1105C53.8416 19.1105 52.0991 17.2529 52.0991 14.2616V14.2529C52.0991 11.2791 53.8591 9.37791 56.6086 9.37791C59.358 9.37791 61.083 11.2355 61.083 14.061V14.8459H54.6209C54.6472 16.3372 55.4615 17.2093 56.7662 17.2093C57.8169 17.2093 58.4561 16.6337 58.64 16.1105L58.6575 16.0581H61.0041L60.9779 16.1541C60.6889 17.532 59.393 19.1105 56.7136 19.1105ZM56.6523 11.2791C55.6016 11.2791 54.8135 11.9767 54.6472 13.2413H58.6312C58.4736 11.9506 57.7118 11.2791 56.6523 11.2791Z" fill="white"/>
<path d="M62.4051 18.9186V9.56977H64.9619V11.1047H65.0145C65.496 10.032 66.4592 9.37791 67.8777 9.37791C69.9442 9.37791 71.1175 10.6948 71.1175 12.8837V18.9186H68.5607V13.407C68.5607 12.186 67.9828 11.4884 66.8357 11.4884C65.6887 11.4884 64.9619 12.3256 64.9619 13.5465V18.9186H62.4051Z" fill="white"/>
<path d="M73.0701 18.9186V6.3343H75.0315V11.6541H81.5198V6.3343H83.4812V18.9186H81.5198V13.3459H75.0315V18.9186H73.0701Z" fill="white"/>
<path d="M88.0344 19.0843C86.1956 19.0843 84.961 17.9593 84.961 16.311V16.2936C84.961 14.6977 86.2044 13.7209 88.3846 13.5901L90.8889 13.4419V12.7529C90.8889 11.7413 90.2322 11.1308 89.0589 11.1308C87.9643 11.1308 87.2901 11.6453 87.1325 12.3779L87.115 12.4564H85.3287L85.3375 12.3605C85.4688 10.782 86.8436 9.56977 89.1114 9.56977C91.3617 9.56977 92.789 10.7558 92.789 12.5959V18.9186H90.8889V17.4709H90.8539C90.3198 18.4564 89.2515 19.0843 88.0344 19.0843ZM86.8698 16.2674C86.8698 17.0698 87.5353 17.5756 88.551 17.5756C89.8819 17.5756 90.8889 16.6773 90.8889 15.4826V14.7674L88.6386 14.907C87.5003 14.9767 86.8698 15.4738 86.8698 16.25V16.2674Z" fill="white"/>
<path d="M98.5856 19.1017C95.8974 19.1017 94.2162 17.2616 94.2162 14.3227V14.314C94.2162 11.4099 95.9324 9.56977 98.5593 9.56977C100.932 9.56977 102.368 11.0872 102.526 12.814L102.535 12.875H100.731L100.713 12.8052C100.512 11.907 99.8114 11.1483 98.5768 11.1483C97.1058 11.1483 96.1514 12.3692 96.1514 14.3314V14.3401C96.1514 16.3459 97.1233 17.5233 98.5856 17.5233C99.7501 17.5233 100.494 16.8517 100.722 15.8576L100.731 15.7878H102.552L102.543 15.8488C102.342 17.689 100.801 19.1017 98.5856 19.1017Z" fill="white"/>
<path d="M103.997 18.9186V6.3343H105.888V13.6599H105.932L109.627 9.74419H111.851L108.068 13.7035L112 18.9186H109.802L106.676 14.8372L105.888 15.6134V18.9186H103.997Z" fill="white"/>
<path fill-rule="evenodd" clip-rule="evenodd" d="M12.0485 0.5C12.3162 4.21556 15.1007 11.8173 24.0969 12.5C20.4378 12.66 12.9053 15.284 12.0485 24.5C11.1917 15.284 3.65917 12.66 0 12.5C8.99619 11.8173 11.7807 4.21555 12.0485 0.5ZM12.0025 7.75336C11.8966 9.22308 10.7952 12.23 7.23669 12.5C8.68408 12.5633 11.6636 13.6012 12.0025 17.2466C12.3414 13.6013 15.3209 12.5633 16.7683 12.5C13.2099 12.2299 12.1084 9.22307 12.0025 7.75336Z" fill="url(#paint0_linear_104_1462)"/>
<defs>
<linearGradient id="paint0_linear_104_1462" x1="112" y1="-3.40698" x2="103.347" y2="43.5454" gradientUnits="userSpaceOnUse">
<stop stop-color="#FFAB2E"/>
<stop offset="1" stop-color="#FF0022"/>
</linearGradient>
</defs>
</svg>
