<svg width="19" height="20" viewBox="0 0 19 20" fill="none" xmlns="http://www.w3.org/2000/svg">
<path d="M12.6666 17.125V15.5417C12.6666 14.7018 12.333 13.8964 11.7392 13.3025C11.1453 12.7086 10.3398 12.375 9.49998 12.375H4.74998C3.91013 12.375 3.10467 12.7086 2.51081 13.3025C1.91694 13.8964 1.58331 14.7018 1.58331 15.5417V17.125" stroke="currentColor" stroke-width="2" stroke-linecap="round" stroke-linejoin="round" fill="none"/>
<path d="M7.12498 9.20833C8.87388 9.20833 10.2916 7.79057 10.2916 6.04167C10.2916 4.29276 8.87388 2.875 7.12498 2.875C5.37608 2.875 3.95831 4.29276 3.95831 6.04167C3.95831 7.79057 5.37608 9.20833 7.12498 9.20833Z" stroke="currentColor" stroke-width="2" stroke-linecap="round" stroke-linejoin="round" fill="none"/>
<path d="M17.4167 17.125V15.5417C17.4162 14.84 17.1826 14.1584 16.7528 13.6039C16.3229 13.0494 15.721 12.6533 15.0417 12.4779" stroke="currentColor" stroke-width="2" stroke-linecap="round" stroke-linejoin="round" fill="none"/>
<path d="M12.6667 2.97791C13.3478 3.15231 13.9516 3.54846 14.3827 4.1039C14.8139 4.65934 15.0479 5.34248 15.0479 6.04561C15.0479 6.74875 14.8139 7.43189 14.3827 7.98733C13.9516 8.54277 13.3478 8.93892 12.6667 9.11332" stroke="currentColor" stroke-width="2" stroke-linecap="round" stroke-linejoin="round" fill="none"/>
</svg>
